<?xml version="1.0" standalone="no"?><!DOCTYPE svg PUBLIC "-//W3C//DTD SVG 1.1//EN" "http://www.w3.org/Graphics/SVG/1.1/DTD/svg11.dtd"><svg height="1200" node-id="1" sillyvg="true" template-height="1200" template-width="1535" version="1.1" viewBox="0 0 1535 1200" width="1535" xmlns="http://www.w3.org/2000/svg" xmlns:xlink="http://www.w3.org/1999/xlink"><defs node-id="25"></defs><g node-id="27"><path d="M 462.20 966.40 L 479.60 984.80 L 511.80 1016.90 L 540.70 1044.20 L 573.90 1073.80 L 591.90 1089.00 L 610.40 1103.90 L 629.50 1118.60 L 642.50 1128.10 L 668.70 1146.10 L 682.00 1154.60 L 695.10 1162.40 L 718.20 1174.80 L 737.50 1183.70 L 746.90 1187.50 L 756.60 1190.90 L 766.00 1193.80 L 775.10 1196.10 L 783.80 1197.80 L 791.10 1198.90 L 804.80 1199.70 L 811.40 1199.40 L 817.70 1198.80 L 824.10 1197.80 L 830.20 1196.20 L 836.20 1194.20 L 841.90 1191.70 L 847.50 1188.70 L 852.70 1185.40 L 857.80 1181.40 L 862.60 1176.80 L 867.40 1171.70 L 871.90 1165.80 L 879.20 1155.00 L 885.70 1144.40 L 891.50 1133.90 L 896.50 1123.50 L 901.10 1112.80 L 905.10 1102.30 L 908.40 1091.90 L 911.10 1081.80 L 913.30 1071.40 L 915.00 1061.30 L 916.10 1051.50 L 916.80 1041.90 L 917.00 1032.30 L 916.80 1022.90 L 916.10 1014.00 L 915.00 1005.40 L 913.50 996.80 L 911.60 988.60 L 909.50 980.90 L 907.00 973.60 L 904.00 966.40 L 900.90 959.70 L 897.50 953.60 L 893.90 947.90 L 889.90 942.50 L 885.80 937.70 L 881.50 933.40 L 877.20 929.80 L 872.40 926.50 L 867.70 923.90 L 862.80 922.00 L 857.90 920.60 L 853.90 920.00 L 849.90 919.70 L 845.80 920.00 L 841.70 920.60 L 837.50 921.80 L 833.60 923.30 L 829.60 925.30 L 825.50 927.80 L 821.40 930.90 L 795.00 955.80 L 779.80 969.00 L 771.90 975.30 L 763.80 981.30 L 755.40 986.90 L 746.50 992.20 L 739.70 995.80 L 725.10 1002.20 L 717.20 1005.10 L 709.40 1007.50 L 701.00 1009.50 L 692.10 1011.30 L 682.70 1012.70 L 673.40 1013.60 L 663.40 1014.20 L 652.70 1014.30 L 641.30 1013.90 L 630.20 1013.10 L 618.30 1011.80 L 605.50 1009.90 L 591.80 1007.40 L 578.50 1004.60 L 564.30 1001.10 L 549.00 996.90 L 532.50 992.00 L 499.70 980.80 L 462.20 966.40 Z" fill="#f5cf6e" fill-rule="nonzero" group-id="1" id="Shape" node-id="9" stroke="none" target-height="279.99994" target-width="454.8" target-x="462.2" target-y="919.7"></path><path d="M 535.10 1039.00 L 555.60 1045.40 L 591.90 1055.70 L 623.00 1063.60 L 639.90 1067.50 L 674.70 1074.40 L 692.40 1077.30 L 709.80 1079.60 L 721.40 1080.80 L 743.20 1082.10 L 753.90 1082.10 L 763.90 1081.70 L 773.10 1080.90 L 786.40 1078.60 L 792.20 1077.00 L 806.80 1071.80 L 815.00 1069.20 L 828.90 1065.80 L 835.90 1064.80 L 841.90 1064.40 L 847.10 1064.40 L 851.60 1064.80 L 856.30 1065.80 L 860.20 1067.00 L 863.40 1068.60 L 866.10 1070.40 L 868.40 1072.60 L 870.30 1075.10 L 871.60 1077.70 L 872.50 1080.60 L 872.90 1083.70 L 872.90 1086.80 L 872.30 1090.20 L 871.30 1093.90 L 868.10 1100.80 L 862.80 1108.30 L 856.10 1115.20 L 847.30 1122.00 L 837.30 1128.00 L 831.50 1130.80 L 818.80 1135.60 L 812.00 1137.50 L 804.70 1139.10 L 796.70 1140.50 L 788.90 1141.40 L 780.60 1141.80 L 771.80 1141.90 L 762.30 1141.50 L 753.20 1140.60 L 743.40 1138.90 L 732.90 1136.50 L 722.60 1133.70 L 700.60 1126.30 L 678.30 1117.40 L 667.00 1112.50 L 650.20 1104.60 L 633.80 1096.50 L 602.80 1079.90 L 575.80 1064.30 L 554.30 1051.30 L 535.10 1039.00 Z" fill="#ffe95f" fill-rule="nonzero" group-id="1" id="Shape" node-id="10" stroke="none" target-height="102.900024" target-width="337.80005" target-x="535.1" target-y="1039"></path><path d="M 889.60 157.90 L 901.70 156.50 L 922.80 155.20 L 937.00 154.80 L 952.20 154.80 L 981.80 156.10 L 1008.40 158.70 L 1022.10 160.50 L 1036.40 162.90 L 1051.40 165.80 L 1066.20 169.20 L 1081.50 173.30 L 1097.10 178.00 L 1120.40 186.20 L 1144.10 196.30 L 1155.70 201.80 L 1167.40 208.00 L 1179.10 214.60 L 1190.70 221.80 L 1202.00 229.30 L 1213.30 237.50 L 1224.40 246.30 L 1235.50 255.70 L 1252.30 271.70 L 1260.60 280.40 L 1268.70 289.50 L 1276.80 299.20 L 1281.50 305.60 L 1285.70 312.00 L 1289.10 318.30 L 1292.00 324.70 L 1294.30 331.00 L 1296.20 337.60 L 1297.50 344.20 L 1298.40 350.80 L 1298.80 357.40 L 1298.70 364.10 L 1297.90 372.40 L 1296.60 380.70 L 1294.60 389.00 L 1291.90 397.40 L 1288.70 405.60 L 1285.10 413.70 L 1280.90 421.80 L 1276.10 429.90 L 1271.00 437.70 L 1259.60 452.90 L 1253.30 460.40 L 1244.50 469.90 L 1235.30 479.10 L 1225.60 487.90 L 1215.60 496.30 L 1205.40 504.10 L 1195.00 511.30 L 1184.40 518.10 L 1173.90 524.20 L 1163.60 529.60 L 1155.70 533.40 L 1148.00 536.60 L 1133.50 541.70 L 1126.10 543.70 L 1119.20 545.20 L 1112.70 546.10 L 1106.70 546.50 L 1100.50 546.50 L 1094.90 545.80 L 1089.80 544.70 L 1085.30 543.00 L 1081.80 541.20 L 1078.70 539.10 L 1075.90 536.50 L 1073.40 533.50 L 1071.30 530.10 L 1069.60 526.60 L 1068.30 522.60 L 1067.40 518.00 L 1066.80 512.70 L 1066.80 506.70 L 1067.30 497.80 L 1068.40 488.30 L 1069.90 478.20 L 1072.80 463.00 L 1087.50 396.40 L 1090.80 379.00 L 1094.10 355.80 L 1095.10 344.20 L 1095.70 332.60 L 1095.60 321.10 L 1094.90 309.70 L 1094.00 301.30 L 1092.50 292.90 L 1090.60 284.70 L 1088.20 276.60 L 1085.40 268.60 L 1081.90 260.80 L 1077.80 253.10 L 1073.10 245.50 L 1069.00 239.70 L 1064.50 234.00 L 1059.40 228.40 L 1053.80 222.80 L 1047.60 217.20 L 1041.40 212.20 L 1034.60 207.20 L 1027.00 202.30 L 1018.80 197.50 L 1009.80 192.70 L 991.60 184.40 L 981.20 180.30 L 970.00 176.40 L 957.80 172.60 L 943.10 168.60 L 926.80 164.80 L 909.10 161.20 L 889.60 157.90 Z" fill="#f5cf6e" fill-rule="nonzero" group-id="1" id="Shape" node-id="11" stroke="none" target-height="391.7" target-width="409.20007" target-x="889.6" target-y="154.8"></path><path d="M 968.10 153.60 L 980.40 155.10 L 1001.10 158.60 L 1014.70 161.50 L 1028.90 164.90 L 1045.10 169.50 L 1067.30 176.80 L 1079.20 181.30 L 1090.90 186.20 L 1102.80 191.60 L 1114.90 197.70 L 1126.70 204.30 L 1138.40 211.50 L 1149.90 219.40 L 1158.30 225.60 L 1166.50 232.30 L 1174.40 239.40 L 1182.20 246.90 L 1189.50 254.80 L 1196.50 263.10 L 1203.10 271.90 L 1209.40 281.20 L 1214.00 288.80 L 1218.30 296.70 L 1222.30 305.00 L 1226.00 313.70 L 1229.50 323.10 L 1230.90 330.50 L 1231.40 342.30 L 1230.20 355.80 L 1229.00 363.20 L 1227.10 371.80 L 1224.30 381.90 L 1221.00 391.70 L 1216.70 402.90 L 1211.20 415.60 L 1206.50 424.90 L 1202.30 432.50 L 1198.30 438.70 L 1194.70 443.60 L 1191.20 447.60 L 1188.00 450.70 L 1184.90 453.10 L 1182.00 454.80 L 1179.20 455.90 L 1176.10 456.60 L 1173.10 456.80 L 1170.10 456.40 L 1167.00 455.60 L 1163.90 454.10 L 1160.30 451.90 L 1156.50 448.90 L 1152.40 445.00 L 1148.10 440.20 L 1142.90 433.50 L 1137.30 425.40 L 1131.20 415.80 L 1122.40 400.70 L 1112.50 382.90 L 1079.80 321.80 L 1067.00 298.70 L 1048.80 267.30 L 1038.80 251.00 L 1028.50 234.90 L 1017.60 218.50 L 1006.00 202.00 L 994.10 185.80 L 981.40 169.70 L 968.10 153.60 Z" fill="#ffe95f" fill-rule="nonzero" group-id="1" id="Shape" node-id="12" stroke="none" target-height="303.19998" target-width="263.30005" target-x="968.1" target-y="153.6"></path><path d="M 1087.80 274.10 L 1078.30 257.60 L 1068.00 240.90 L 1056.90 223.80 L 1039.10 198.80 L 1019.40 173.80 L 1009.10 161.60 L 998.30 149.60 L 987.00 137.80 L 975.20 126.10 L 963.20 114.80 L 950.60 103.90 L 937.60 93.30 L 924.10 83.00 L 913.10 75.20 L 901.80 67.70 L 890.20 60.40 L 878.30 53.50 L 866.00 46.80 L 853.60 40.60 L 840.90 34.80 L 827.80 29.30 L 814.40 24.20 L 800.70 19.60 L 786.90 15.40 L 772.70 11.70 L 758.20 8.50 L 743.30 5.80 L 727.90 3.50 L 712.80 1.90 L 697.20 0.80 L 681.10 0.20 L 664.70 0.30 L 647.70 0.90 L 633.90 1.90 L 619.80 3.30 L 605.30 5.20 L 590.50 7.60 L 575.30 10.50 L 559.80 13.90 L 544.80 17.60 L 529.40 21.90 L 513.70 26.70 L 497.50 32.10 L 481.00 38.10 L 464.00 44.70 L 453.50 49.20 L 443.10 54.20 L 432.80 59.60 L 422.70 65.50 L 412.80 71.70 L 403.20 78.30 L 393.80 85.30 L 384.70 92.50 L 375.80 100.10 L 367.40 108.00 L 359.30 116.00 L 351.70 124.20 L 344.30 132.80 L 337.50 141.50 L 331.10 150.20 L 318.70 168.90 L 311.70 178.30 L 304.40 187.20 L 296.70 195.70 L 288.60 203.70 L 280.20 211.40 L 271.50 218.80 L 262.50 225.70 L 250.20 234.50 L 237.60 242.80 L 224.70 250.70 L 211.50 258.10 L 185.00 272.10 L 125.60 300.80 L 94.90 316.70 L 83.40 323.30 L 72.50 330.00 L 56.90 340.90 L 43.20 352.30 L 36.90 358.50 L 31.10 365.00 L 25.80 371.70 L 21.00 378.70 L 17.60 384.50 L 14.60 390.60 L 11.90 396.90 L 9.70 403.60 L 7.80 410.60 L 6.40 417.50 L 5.40 424.80 L 4.90 432.60 L 4.80 440.80 L 5.20 449.50 L 5.80 454.20 L 6.90 458.80 L 8.50 463.20 L 10.50 467.60 L 13.70 473.20 L 17.60 478.80 L 22.20 484.40 L 32.80 495.20 L 48.50 509.20 L 80.90 536.70 L 95.70 550.50 L 103.10 558.00 L 110.20 565.80 L 117.20 574.10 L 124.00 582.90 L 133.40 596.90 L 137.80 604.40 L 145.80 620.30 L 149.40 628.80 L 152.70 637.80 L 155.60 647.20 L 158.10 656.70 L 160.30 666.70 L 162.00 677.30 L 164.80 701.70 L 167.00 714.80 L 169.70 727.90 L 173.10 741.00 L 177.00 754.10 L 181.50 766.90 L 186.60 779.70 L 192.20 792.40 L 198.50 805.00 L 205.30 817.60 L 212.60 829.90 L 220.40 842.00 L 228.80 853.90 L 237.80 865.70 L 247.30 877.50 L 257.20 888.70 L 267.60 899.80 L 278.50 910.60 L 290.00 921.30 L 302.10 931.70 L 314.40 941.70 L 327.10 951.30 L 340.40 960.70 L 354.30 969.80 L 368.70 978.60 L 383.20 986.90 L 398.20 994.80 L 413.60 1002.40 L 429.60 1009.60 L 446.10 1016.40 L 462.70 1022.60 L 479.70 1028.40 L 497.20 1033.80 L 515.10 1038.70 L 533.60 1043.10 L 552.00 1047.00 L 570.80 1050.30 L 590.10 1053.10 L 609.90 1055.40 L 630.10 1057.10 L 646.80 1058.10 L 663.70 1058.60 L 681.00 1058.70 L 698.60 1058.40 L 716.50 1057.70 L 734.70 1056.50 L 752.60 1054.90 L 770.80 1052.80 L 789.20 1050.20 L 808.00 1047.10 L 827.10 1043.50 L 846.60 1039.40 L 865.50 1035.00 L 884.70 1030.00 L 904.20 1024.40 L 924.10 1018.20 L 944.20 1011.50 L 964.70 1004.20 L 989.40 990.00 L 1010.70 979.10 L 1023.30 973.20 L 1036.50 967.40 L 1050.70 961.60 L 1065.40 956.20 L 1080.50 951.30 L 1090.80 948.40 L 1111.30 943.80 L 1121.70 942.10 L 1131.90 940.90 L 1141.90 940.30 L 1149.40 940.20 L 1156.70 940.60 L 1170.80 942.40 L 1177.70 943.90 L 1184.20 945.90 L 1190.60 948.40 L 1196.70 951.40 L 1202.50 954.80 L 1208.00 958.80 L 1213.30 963.50 L 1218.30 968.70 L 1221.80 973.10 L 1225.20 978.00 L 1228.40 983.40 L 1231.40 989.30 L 1254.00 1045.70 L 1266.00 1072.90 L 1276.10 1093.10 L 1281.50 1102.80 L 1286.90 1111.70 L 1292.40 1119.70 L 1296.80 1125.70 L 1301.30 1131.00 L 1305.70 1135.70 L 1310.10 1139.90 L 1314.90 1143.70 L 1319.70 1146.90 L 1324.60 1149.40 L 1329.40 1151.30 L 1333.40 1152.30 L 1337.50 1152.90 L 1341.70 1153.00 L 1346.00 1152.70 L 1350.40 1151.80 L 1354.60 1150.50 L 1359.00 1148.70 L 1363.50 1146.30 L 1368.30 1143.10 L 1373.40 1139.30 L 1382.60 1130.70 L 1387.60 1125.30 L 1398.40 1111.50 L 1404.60 1102.60 L 1411.20 1092.20 L 1418.20 1080.20 L 1425.70 1066.40 L 1439.70 1037.70 L 1447.30 1020.70 L 1455.40 1001.60 L 1465.40 976.50 L 1476.10 947.70 L 1487.60 915.10 L 1497.20 886.50 L 1512.10 839.20 L 1518.40 817.00 L 1523.50 797.80 L 1527.30 781.40 L 1529.90 768.70 L 1531.90 757.60 L 1534.10 739.60 L 1534.60 730.70 L 1534.50 723.20 L 1534.10 716.90 L 1533.20 711.70 L 1532.10 707.30 L 1530.70 703.50 L 1529.20 700.30 L 1527.40 697.70 L 1525.50 695.40 L 1522.60 693.00 L 1519.30 691.10 L 1515.70 689.70 L 1511.60 688.80 L 1503.00 688.30 L 1492.50 689.50 L 1477.40 692.90 L 1468.80 695.50 L 1426.60 709.50 L 1400.40 717.70 L 1378.40 723.30 L 1367.20 725.60 L 1355.90 727.40 L 1282.60 735.40 L 1274.20 736.10 L 1259.90 736.20 L 1253.20 735.70 L 1247.10 734.60 L 1241.60 733.10 L 1237.50 731.50 L 1233.70 729.50 L 1230.00 727.00 L 1226.40 724.20 L 1223.20 721.00 L 1216.80 712.90 L 1213.60 707.80 L 1209.90 700.90 L 1206.10 692.50 L 1202.10 682.40 L 1198.60 672.10 L 1191.00 646.00 L 1185.40 624.00 L 1172.90 568.30 L 1149.80 454.60 L 1147.50 440.20 L 1145.30 428.50 L 1142.40 415.60 L 1135.10 388.10 L 1126.90 362.30 L 1122.10 348.90 L 1116.60 334.80 L 1110.30 319.80 L 1103.60 305.00 L 1096.10 289.80 L 1087.80 274.10 Z" fill="#ffe95f" fill-rule="nonzero" group-id="1" id="Shape" node-id="13" stroke="none" target-height="1152.8" target-width="1529.7999" target-x="4.8" target-y="0.2"></path><path d="M 1534.60 724.00 L 1526.80 750.00 L 1519.00 774.10 L 1511.30 796.30 L 1503.60 816.90 L 1495.20 837.90 L 1486.90 857.10 L 1478.80 874.80 L 1470.70 890.90 L 1462.00 907.20 L 1453.40 922.00 L 1445.10 935.50 L 1437.00 947.60 L 1428.20 959.70 L 1419.60 970.60 L 1411.40 980.30 L 1403.50 988.80 L 1394.90 997.30 L 1386.60 1004.60 L 1378.80 1010.90 L 1371.30 1016.40 L 1363.20 1021.50 L 1355.60 1025.80 L 1348.30 1029.30 L 1341.50 1032.00 L 1334.20 1034.30 L 1327.50 1036.00 L 1321.10 1037.00 L 1315.20 1037.50 L 1309.10 1037.50 L 1303.50 1037.00 L 1298.30 1036.00 L 1293.60 1034.60 L 1288.90 1032.70 L 1284.70 1030.50 L 1280.90 1028.00 L 1277.60 1025.20 L 1274.60 1021.90 L 1272.10 1018.50 L 1270.10 1014.80 L 1268.50 1010.90 L 1267.40 1006.80 L 1266.80 1002.60 L 1266.80 998.20 L 1267.20 993.60 L 1268.20 989.10 L 1269.80 984.50 L 1272.10 979.80 L 1289.40 952.30 L 1300.40 932.20 L 1309.70 912.40 L 1316.30 895.30 L 1320.00 883.90 L 1322.80 873.70 L 1324.80 864.50 L 1326.30 855.20 L 1327.30 847.10 L 1327.80 840.10 L 1327.80 827.20 L 1326.50 815.70 L 1325.60 811.60 L 1324.60 807.90 L 1313.90 799.50 L 1304.80 791.80 L 1297.20 784.90 L 1289.90 777.50 L 1283.80 770.80 L 1278.90 764.60 L 1274.40 758.00 L 1270.80 751.90 L 1268.00 746.20 L 1265.70 740.20 L 1263.90 734.50 L 1262.70 728.90 L 1257.10 726.60 L 1251.70 723.70 L 1246.30 720.30 L 1241.00 716.20 L 1236.20 711.80 L 1231.40 706.60 L 1226.50 700.50 L 1221.60 693.40 L 1217.30 686.40 L 1212.80 678.20 L 1208.20 668.90 L 1199.40 647.90 L 1190.70 623.00 L 1180.60 588.90 L 1174.70 566.60 L 1168.50 541.20 L 1156.50 486.90 L 1149.90 454.60 L 1147.60 440.20 L 1145.30 428.50 L 1142.40 415.50 L 1135.10 388.10 L 1126.90 362.30 L 1122.10 348.90 L 1116.60 334.80 L 1110.40 319.80 L 1103.70 305.00 L 1096.20 289.80 L 1087.80 274.10 L 1078.30 257.60 L 1068.00 240.90 L 1056.90 223.80 L 1048.20 211.30 L 1029.50 186.30 L 1019.40 173.80 L 1009.10 161.60 L 998.30 149.60 L 987.00 137.70 L 975.20 126.10 L 963.20 114.80 L 950.60 103.90 L 937.60 93.30 L 924.20 83.00 L 913.20 75.20 L 901.80 67.70 L 890.20 60.40 L 878.30 53.50 L 866.00 46.80 L 853.60 40.60 L 840.90 34.80 L 827.80 29.30 L 814.40 24.20 L 800.70 19.60 L 786.90 15.40 L 772.70 11.70 L 758.20 8.50 L 743.30 5.80 L 728.00 3.50 L 712.80 1.90 L 697.20 0.80 L 681.10 0.20 L 664.70 0.30 L 647.70 0.90 L 633.90 1.90 L 619.80 3.30 L 605.30 5.20 L 590.50 7.60 L 575.30 10.50 L 559.80 13.90 L 544.80 17.60 L 529.40 21.80 L 513.70 26.70 L 497.50 32.10 L 481.00 38.10 L 464.00 44.70 L 453.50 49.20 L 443.10 54.20 L 432.80 59.60 L 422.70 65.50 L 412.80 71.70 L 403.20 78.30 L 393.80 85.30 L 384.70 92.50 L 375.80 100.10 L 367.40 108.00 L 359.30 116.00 L 351.70 124.20 L 344.30 132.80 L 337.50 141.50 L 331.10 150.20 L 318.70 168.90 L 311.70 178.30 L 304.40 187.20 L 296.70 195.70 L 288.60 203.70 L 280.20 211.40 L 271.50 218.80 L 262.50 225.70 L 250.20 234.50 L 237.60 242.90 L 224.70 250.70 L 211.50 258.10 L 185.00 272.10 L 125.60 300.80 L 94.90 316.70 L 83.40 323.30 L 72.50 330.00 L 64.50 335.40 L 49.80 346.50 L 43.20 352.30 L 36.90 358.50 L 31.10 365.00 L 25.80 371.70 L 21.00 378.70 L 17.60 384.50 L 14.60 390.60 L 11.90 396.90 L 9.70 403.60 L 7.80 410.60 L 6.40 417.50 L 5.40 424.80 L 4.90 432.60 L 4.80 440.80 L 5.20 449.50 L 5.90 454.20 L 6.90 458.80 L 8.50 463.20 L 10.50 467.60 L 13.70 473.20 L 17.60 478.80 L 22.20 484.40 L 32.80 495.20 L 48.50 509.20 L 80.90 536.70 L 95.70 550.50 L 103.10 558.00 L 110.20 565.80 L 117.20 574.10 L 124.00 582.90 L 133.40 596.90 L 137.80 604.40 L 145.80 620.30 L 149.40 628.80 L 152.70 637.80 L 155.60 647.20 L 158.10 656.70 L 160.30 666.70 L 162.00 677.30 L 164.80 701.70 L 167.00 714.80 L 169.70 727.90 L 173.10 741.00 L 177.00 754.10 L 181.50 766.90 L 186.60 779.70 L 192.20 792.40 L 198.50 805.00 L 205.40 817.60 L 212.60 829.90 L 220.40 842.00 L 228.80 853.90 L 237.80 865.70 L 247.40 877.50 L 257.20 888.70 L 267.60 899.80 L 278.50 910.60 L 290.00 921.30 L 302.10 931.70 L 314.40 941.70 L 327.20 951.30 L 340.50 960.70 L 354.30 969.80 L 368.70 978.60 L 383.20 986.90 L 398.20 994.80 L 413.60 1002.40 L 429.60 1009.60 L 446.20 1016.40 L 462.70 1022.60 L 479.70 1028.40 L 497.20 1033.80 L 515.10 1038.70 L 533.60 1043.10 L 552.00 1047.00 L 570.80 1050.30 L 590.10 1053.10 L 609.90 1055.40 L 630.10 1057.10 L 646.80 1058.10 L 663.70 1058.60 L 681.00 1058.70 L 698.60 1058.40 L 716.50 1057.70 L 734.80 1056.50 L 752.60 1054.90 L 770.80 1052.80 L 789.30 1050.20 L 808.00 1047.10 L 827.10 1043.50 L 846.60 1039.40 L 865.50 1035.00 L 884.70 1030.00 L 904.20 1024.40 L 924.10 1018.20 L 944.20 1011.50 L 964.70 1004.20 L 989.40 990.00 L 1010.70 979.10 L 1023.30 973.20 L 1036.50 967.40 L 1050.70 961.60 L 1065.40 956.20 L 1080.50 951.30 L 1101.10 945.90 L 1111.40 943.80 L 1121.70 942.10 L 1131.90 940.90 L 1141.90 940.30 L 1149.40 940.20 L 1163.90 941.30 L 1170.80 942.40 L 1177.70 943.90 L 1184.30 945.90 L 1190.60 948.40 L 1196.70 951.40 L 1202.50 954.80 L 1208.00 958.80 L 1213.30 963.50 L 1218.30 968.70 L 1221.80 973.10 L 1225.20 978.00 L 1228.40 983.40 L 1231.40 989.30 L 1254.00 1045.70 L 1261.10 1062.10 L 1271.00 1083.30 L 1281.50 1102.80 L 1287.00 1111.70 L 1292.40 1119.70 L 1301.30 1131.00 L 1310.10 1139.90 L 1314.90 1143.70 L 1319.70 1146.90 L 1324.60 1149.40 L 1329.40 1151.30 L 1333.40 1152.30 L 1337.50 1152.90 L 1341.70 1153.00 L 1346.00 1152.70 L 1350.50 1151.80 L 1354.60 1150.50 L 1359.00 1148.70 L 1363.50 1146.30 L 1368.30 1143.10 L 1373.40 1139.30 L 1377.90 1135.40 L 1387.60 1125.30 L 1392.90 1118.90 L 1398.40 1111.50 L 1404.60 1102.60 L 1411.20 1092.20 L 1418.20 1080.20 L 1425.70 1066.40 L 1432.50 1052.90 L 1447.30 1020.70 L 1455.40 1001.60 L 1465.40 976.50 L 1476.10 947.70 L 1487.60 915.10 L 1498.90 881.20 L 1508.10 851.60 L 1513.80 832.30 L 1522.50 799.30 L 1529.00 769.50 L 1531.20 757.00 L 1533.00 744.50 L 1534.00 733.50 L 1534.60 724.00 Z" fill="#f5cf6e" fill-rule="nonzero" group-id="1" id="Shape" node-id="14" stroke="none" target-height="1152.8" target-width="1529.7999" target-x="4.8" target-y="0.2"></path><path d="M 1149.80 454.60 L 1147.60 440.20 L 1142.40 415.60 L 1138.20 399.30 L 1131.30 375.80 L 1122.10 348.90 L 1116.60 334.80 L 1110.30 319.80 L 1103.60 305.00 L 1096.10 289.80 L 1087.80 274.10 L 1078.30 257.60 L 1068.00 240.90 L 1056.90 223.80 L 1039.10 198.80 L 1019.40 173.80 L 1009.10 161.60 L 998.30 149.60 L 987.00 137.80 L 975.20 126.10 L 963.20 114.80 L 950.60 103.90 L 937.60 93.30 L 924.10 83.00 L 913.10 75.20 L 901.80 67.70 L 890.20 60.40 L 878.30 53.50 L 866.00 46.80 L 853.60 40.60 L 840.90 34.80 L 827.80 29.30 L 814.40 24.20 L 800.70 19.60 L 786.90 15.40 L 772.70 11.70 L 758.20 8.50 L 743.30 5.80 L 727.90 3.50 L 712.80 1.90 L 697.20 0.80 L 681.10 0.20 L 664.70 0.30 L 647.70 0.90 L 633.90 1.90 L 619.80 3.30 L 605.30 5.20 L 590.50 7.60 L 575.30 10.50 L 559.80 13.90 L 544.80 17.60 L 529.40 21.90 L 513.70 26.70 L 497.50 32.10 L 481.00 38.10 L 464.00 44.70 L 453.50 49.20 L 443.10 54.20 L 432.80 59.60 L 422.70 65.50 L 412.80 71.70 L 403.20 78.30 L 393.80 85.30 L 384.70 92.50 L 375.80 100.10 L 367.40 108.00 L 359.30 116.00 L 351.70 124.20 L 344.30 132.80 L 337.50 141.50 L 331.10 150.20 L 318.20 169.80 L 310.90 179.80 L 303.50 189.00 L 296.00 197.60 L 288.00 205.90 L 279.80 213.50 L 271.60 220.60 L 263.30 227.10 L 254.70 233.40 L 246.00 239.10 L 228.40 249.40 L 216.40 255.50 L 204.40 261.10 L 192.50 266.10 L 180.30 270.70 L 156.50 278.90 L 105.00 294.70 L 89.30 299.90 L 69.30 307.40 L 60.20 311.50 L 47.20 318.40 L 35.70 326.10 L 30.40 330.40 L 25.40 335.10 L 20.90 340.10 L 16.80 345.50 L 13.10 351.20 L 9.90 357.30 L 7.10 364.10 L 4.70 371.40 L 2.90 378.70 L 1.60 386.80 L 0.70 395.70 L 0.40 405.50 L 0.70 415.00 L 1.50 425.40 L 3.00 436.90 L 5.20 449.50 L 6.50 454.60 L 8.30 459.60 L 10.60 464.40 L 13.40 469.20 L 17.60 475.30 L 22.70 481.40 L 28.50 487.60 L 37.80 496.60 L 71.60 525.60 L 83.50 536.20 L 95.70 547.80 L 103.50 555.90 L 111.30 564.60 L 118.90 573.90 L 124.20 581.10 L 129.40 588.70 L 134.40 596.70 L 139.20 605.20 L 143.50 613.80 L 147.50 623.00 L 151.20 632.70 L 154.60 643.00 L 157.50 653.30 L 159.90 664.30 L 161.80 676.10 L 164.80 701.70 L 167.00 714.80 L 169.70 727.90 L 173.10 741.00 L 177.00 754.10 L 181.50 766.90 L 186.60 779.70 L 192.20 792.40 L 198.50 805.00 L 205.30 817.60 L 212.60 829.90 L 220.40 842.00 L 228.80 853.90 L 237.80 865.70 L 247.30 877.50 L 257.20 888.70 L 267.60 899.80 L 278.50 910.60 L 290.00 921.30 L 302.10 931.70 L 314.40 941.70 L 327.20 951.30 L 340.50 960.70 L 354.30 969.80 L 368.70 978.60 L 383.20 986.90 L 398.20 994.80 L 413.60 1002.40 L 429.60 1009.60 L 446.20 1016.40 L 462.70 1022.60 L 479.70 1028.40 L 497.20 1033.80 L 515.10 1038.70 L 533.60 1043.10 L 552.00 1047.00 L 570.80 1050.30 L 590.10 1053.10 L 609.90 1055.40 L 630.10 1057.10 L 646.80 1058.10 L 663.70 1058.60 L 681.00 1058.70 L 698.60 1058.40 L 716.50 1057.70 L 734.80 1056.50 L 752.60 1054.90 L 770.80 1052.80 L 789.20 1050.20 L 808.00 1047.10 L 827.10 1043.50 L 846.60 1039.40 L 865.50 1035.00 L 884.70 1030.00 L 904.20 1024.40 L 924.10 1018.20 L 944.20 1011.50 L 964.70 1004.20 L 980.30 996.20 L 998.00 987.80 L 1020.70 977.90 L 1047.30 967.50 L 1061.50 962.50 L 1076.50 957.70 L 1082.90 953.90 L 1089.30 950.60 L 1095.60 947.90 L 1101.80 945.60 L 1110.40 943.10 L 1118.80 941.20 L 1127.20 940.00 L 1143.90 938.90 L 1152.10 938.90 L 1164.40 939.50 L 1199.50 943.10 L 1210.60 944.10 L 1221.10 944.50 L 1228.00 944.50 L 1234.60 944.00 L 1240.90 943.00 L 1245.50 942.00 L 1254.30 938.90 L 1258.50 936.70 L 1262.40 934.30 L 1266.20 931.30 L 1269.80 927.80 L 1281.50 913.70 L 1288.50 904.10 L 1294.70 895.10 L 1300.10 886.50 L 1305.20 877.40 L 1309.60 868.90 L 1313.20 860.80 L 1316.20 853.10 L 1318.90 845.10 L 1321.00 837.50 L 1322.60 830.40 L 1323.60 823.70 L 1324.60 810.20 L 1324.10 798.20 L 1323.00 790.40 L 1321.40 783.30 L 1319.30 776.80 L 1316.80 770.50 L 1314.10 764.70 L 1311.10 759.60 L 1304.40 750.30 L 1297.60 743.00 L 1291.20 737.80 L 1285.30 734.40 L 1283.10 733.50 L 1276.80 732.60 L 1270.80 731.40 L 1265.00 729.70 L 1259.50 727.60 L 1254.10 725.10 L 1248.90 722.10 L 1243.70 718.40 L 1238.60 714.10 L 1234.00 709.50 L 1229.30 704.20 L 1224.60 697.90 L 1219.80 690.70 L 1215.60 683.50 L 1211.30 675.30 L 1206.90 665.90 L 1202.30 655.30 L 1196.90 641.10 L 1191.20 624.60 L 1185.30 605.60 L 1179.90 586.30 L 1174.10 564.40 L 1168.10 539.40 L 1156.30 486.10 L 1149.80 454.60 Z" fill="#ff99ad" fill-rule="nonzero" group-id="1" id="Shape" node-id="15" stroke="none" target-height="1058.5" target-width="1324.2" target-x="0.4" target-y="0.2"></path><path d="M 386.60 344.50 L 382.30 348.40 L 378.00 351.60 L 373.60 354.00 L 366.80 356.50 L 360.30 357.40 L 353.90 356.90 L 348.10 354.90 L 345.50 353.30 L 343.00 351.40 L 340.80 349.10 L 338.70 346.30 L 335.60 340.00 L 333.90 332.90 L 333.50 328.00 L 333.70 322.90 L 334.50 317.50 L 335.80 312.30 L 337.60 307.10 L 340.00 302.00 L 342.90 297.10 L 346.30 292.50 L 350.20 288.10 L 354.50 284.20 L 358.80 281.10 L 363.20 278.70 L 370.00 276.20 L 376.50 275.20 L 382.90 275.70 L 388.70 277.70 L 391.30 279.30 L 393.80 281.20 L 396.10 283.60 L 398.10 286.40 L 401.20 292.60 L 402.90 299.70 L 403.30 304.70 L 403.10 309.80 L 402.30 315.10 L 401.00 320.30 L 399.20 325.50 L 396.80 330.70 L 393.90 335.60 L 390.50 340.20 L 386.60 344.50 Z" fill="#6e6e96" fill-rule="nonzero" group-id="1" id="Shape" node-id="16" stroke="none" target-height="82.19998" target-width="69.79999" target-x="333.5" target-y="275.2"></path><path d="M 723.70 709.10 L 722.70 711.60 L 719.70 715.80 L 717.80 717.60 L 714.90 719.50 L 711.80 721.00 L 708.30 721.90 L 704.70 722.30 L 701.10 722.00 L 697.30 721.20 L 693.70 719.60 L 690.60 717.70 L 688.00 715.30 L 685.80 712.60 L 684.20 709.60 L 683.10 706.30 L 682.60 701.30 L 682.90 698.70 L 683.50 696.10 L 686.00 691.40 L 689.50 687.60 L 692.40 685.70 L 695.50 684.20 L 699.00 683.30 L 702.60 682.90 L 706.20 683.20 L 710.00 684.10 L 713.60 685.60 L 716.60 687.50 L 719.30 689.90 L 721.50 692.70 L 723.10 695.60 L 724.20 698.90 L 724.60 701.40 L 724.40 706.50 L 723.70 709.10 Z" fill="#e3aa00" fill-rule="nonzero" group-id="1" id="Shape" node-id="17" stroke="none" target-height="39.399963" target-width="42" target-x="682.6" target-y="682.9"></path><path d="M 621.50 696.60 L 620.20 699.60 L 618.60 702.40 L 616.50 704.90 L 614.20 707.00 L 611.60 708.90 L 608.80 710.40 L 605.70 711.50 L 602.60 712.30 L 599.20 712.70 L 595.80 712.70 L 592.40 712.30 L 589.00 711.40 L 585.60 710.10 L 582.60 708.40 L 579.90 706.50 L 577.50 704.20 L 575.50 701.70 L 573.80 699.00 L 572.40 696.20 L 571.50 693.20 L 570.90 690.10 L 570.80 686.90 L 571.20 683.80 L 572.00 680.60 L 573.30 677.50 L 575.00 674.80 L 577.00 672.30 L 579.40 670.10 L 581.90 668.30 L 584.80 666.80 L 587.80 665.60 L 594.30 664.40 L 597.70 664.40 L 601.10 664.90 L 604.60 665.80 L 607.90 667.10 L 610.90 668.70 L 613.60 670.70 L 616.00 672.90 L 618.10 675.40 L 619.80 678.10 L 621.10 681.00 L 622.10 684.00 L 622.60 687.10 L 622.70 690.20 L 622.40 693.40 L 621.50 696.60 Z" fill="#e3aa00" fill-rule="nonzero" group-id="1" id="Shape" node-id="18" stroke="none" target-height="48.299988" target-width="51.900024" target-x="570.8" target-y="664.4"></path><path d="M 464.00 44.70 L 445.40 53.10 L 436.20 57.80 L 449.40 65.30 L 462.20 72.90 L 474.40 80.80 L 486.20 88.80 L 497.60 97.00 L 508.80 105.70 L 519.50 114.60 L 529.80 123.80 L 539.50 133.20 L 548.70 142.90 L 557.60 153.00 L 565.90 163.40 L 573.70 174.10 L 581.00 185.20 L 587.70 196.70 L 592.90 206.40 L 597.70 216.50 L 602.10 226.90 L 606.10 237.60 L 609.80 248.60 L 613.00 260.00 L 615.70 271.30 L 618.00 282.90 L 619.80 295.10 L 621.20 307.60 L 622.20 320.60 L 622.70 334.20 L 622.70 347.20 L 622.20 360.80 L 621.20 374.90 L 619.70 389.50 L 617.60 404.80 L 615.00 420.70 L 612.10 435.80 L 608.60 451.40 L 604.50 467.80 L 599.80 484.80 L 594.40 502.50 L 588.30 520.90 L 583.20 534.90 L 577.70 548.40 L 571.80 561.40 L 565.60 574.00 L 558.90 586.10 L 551.90 597.80 L 544.40 609.30 L 536.50 620.40 L 528.20 631.10 L 519.60 641.40 L 510.60 651.30 L 501.20 660.80 L 491.50 670.00 L 481.50 678.80 L 471.10 687.30 L 460.30 695.30 L 449.30 703.10 L 437.80 710.40 L 426.20 717.40 L 414.30 723.90 L 402.10 730.20 L 389.50 736.10 L 376.60 741.70 L 363.30 746.90 L 347.40 752.60 L 331.00 757.80 L 314.20 762.50 L 297.00 766.70 L 279.30 770.40 L 261.70 773.60 L 243.70 776.30 L 225.30 778.50 L 206.60 780.20 L 187.40 781.40 L 193.20 794.20 L 199.50 806.90 L 206.50 819.60 L 214.10 832.10 L 222.20 844.50 L 230.80 856.50 L 239.90 868.40 L 249.60 880.00 L 259.90 891.60 L 270.70 902.90 L 281.90 913.80 L 293.60 924.40 L 305.80 934.70 L 318.60 944.90 L 332.00 954.80 L 345.50 964.10 L 359.60 973.10 L 374.10 981.80 L 389.20 990.10 L 404.90 998.10 L 420.60 1005.60 L 436.90 1012.60 L 453.60 1019.20 L 470.80 1025.40 L 488.60 1031.20 L 504.30 1016.00 L 519.60 1000.50 L 534.70 984.60 L 549.50 968.30 L 564.00 951.70 L 578.20 934.70 L 592.00 917.50 L 605.50 900.00 L 618.70 882.20 L 631.50 864.00 L 644.00 845.50 L 656.30 826.70 L 668.10 807.70 L 679.50 788.40 L 690.60 768.90 L 701.40 749.00 L 711.80 728.90 L 721.80 708.40 L 731.50 687.80 L 740.70 667.00 L 749.60 645.90 L 758.10 624.60 L 766.20 603.00 L 773.90 581.10 L 793.50 523.00 L 813.40 460.90 L 823.00 428.90 L 832.20 396.40 L 838.00 374.60 L 848.50 331.40 L 853.20 309.70 L 857.30 288.40 L 863.40 251.70 L 865.40 236.20 L 868.20 206.50 L 869.10 191.60 L 869.50 177.20 L 869.40 163.40 L 868.90 150.00 L 867.90 136.50 L 866.30 123.70 L 864.20 111.50 L 861.60 99.90 L 859.10 90.60 L 856.10 81.70 L 852.80 73.30 L 849.10 65.40 L 845.10 57.80 L 840.50 50.40 L 835.50 43.50 L 830.00 37.10 L 824.20 31.10 L 817.80 25.50 L 803.50 20.50 L 788.70 16.00 L 773.60 12.00 L 758.00 8.50 L 745.60 6.20 L 732.80 4.20 L 719.80 2.60 L 706.50 1.40 L 692.80 0.60 L 679.40 0.20 L 665.60 0.20 L 651.50 0.70 L 637.00 1.70 L 622.20 3.10 L 607.70 4.90 L 592.80 7.20 L 577.60 10.00 L 561.90 13.40 L 545.90 17.30 L 530.40 21.60 L 514.40 26.40 L 498.00 31.90 L 481.20 38.00 L 464.00 44.70 Z M 1193.80 632.30 L 1184.50 602.90 L 1179.60 585.40 L 1172.60 558.30 L 1165.10 526.60 L 1157.80 493.20 L 1149.80 454.60 L 1147.50 440.20 L 1145.20 428.50 L 1142.40 415.60 L 1138.20 399.30 L 1131.30 375.80 L 1126.90 362.30 L 1122.10 348.90 L 1116.60 334.80 L 1110.30 319.80 L 1103.60 305.00 L 1096.10 289.80 L 1087.70 274.10 L 1080.20 260.90 L 1063.40 233.80 L 1054.50 220.30 L 1045.00 206.80 L 1034.90 193.30 L 1024.50 180.00 L 1013.50 166.80 L 1002.10 153.80 L 990.20 141.10 L 977.80 128.60 L 964.80 116.40 L 972.40 123.00 L 979.50 129.90 L 986.20 137.30 L 992.50 145.10 L 998.40 153.30 L 1003.90 161.80 L 1008.90 170.60 L 1013.60 179.90 L 1018.00 189.60 L 1022.00 199.70 L 1025.50 209.80 L 1028.80 220.20 L 1031.70 231.10 L 1034.30 242.30 L 1036.50 253.90 L 1038.80 268.30 L 1040.70 283.20 L 1042.10 298.60 L 1043.00 314.60 L 1043.40 330.30 L 1043.50 346.50 L 1043.10 363.10 L 1042.30 380.00 L 1040.70 402.50 L 1038.40 425.40 L 1035.50 448.80 L 1032.10 472.10 L 1028.10 495.60 L 1023.70 519.30 L 1018.70 543.00 L 1013.40 566.50 L 1007.60 590.10 L 995.10 636.70 L 981.40 682.30 L 967.00 726.20 L 959.60 747.00 L 951.80 767.60 L 943.70 787.70 L 935.20 807.50 L 926.30 827.00 L 917.10 846.10 L 907.40 865.20 L 897.30 883.90 L 887.00 902.20 L 876.40 920.20 L 865.40 937.80 L 854.20 955.00 L 842.40 972.10 L 830.50 988.80 L 818.20 1005.00 L 805.80 1020.90 L 793.00 1036.40 L 780.10 1051.50 L 797.60 1048.90 L 815.40 1045.80 L 833.40 1042.20 L 851.80 1038.20 L 870.50 1033.70 L 888.70 1028.80 L 907.30 1023.50 L 926.10 1017.60 L 945.30 1011.10 L 964.70 1004.20 L 980.30 996.20 L 998.00 987.90 L 1020.70 977.90 L 1047.30 967.50 L 1061.50 962.50 L 1076.50 957.70 L 1079.00 956.20 L 1089.50 935.90 L 1099.70 915.30 L 1109.50 894.40 L 1119.00 873.20 L 1128.00 851.90 L 1136.60 830.30 L 1144.80 808.40 L 1152.60 786.30 L 1161.00 760.70 L 1168.80 735.10 L 1176.00 709.50 L 1182.50 683.80 L 1188.50 658.00 L 1193.80 632.30 Z" fill="#ffe95f" fill-rule="nonzero" group-id="1" id="Shape" node-id="19" stroke="none" target-height="1051.3" target-width="1006.4" target-x="187.4" target-y="0.2"></path><g node-id="28"><path d="M 1288.20 866.10 L 1284.20 859.10 L 1280.50 853.70 L 1276.10 848.10 L 1270.00 841.40 L 1260.20 832.40 L 1254.10 827.60 L 1247.70 823.20 L 1240.40 818.80 L 1232.20 814.50 L 1225.90 811.60 L 1211.70 806.50 L 1203.70 804.10 L 1195.70 802.30 L 1187.10 800.70 L 1177.80 799.50 L 1167.80 798.60 L 1158.00 798.20 L 1147.50 798.20 L 1136.20 798.80 L 1124.00 799.90 L 1112.30 801.40 L 1099.60 803.60 L 1086.10 806.50 L 1071.60 810.10 L 1057.70 814.10 L 1042.80 819.00 L 1026.90 824.70 L 998.80 835.70 L 987.40 839.70 L 963.60 846.80 L 970.60 832.40 L 977.20 817.50 L 983.50 802.30 L 989.40 786.50 L 994.80 770.70 L 999.90 754.60 L 1004.70 738.30 L 1009.10 721.60 L 1014.50 699.30 L 1019.30 676.80 L 1023.50 654.00 L 1027.30 631.20 L 1030.60 608.50 L 1033.40 585.80 L 1037.80 540.80 L 1040.70 497.00 L 1042.40 455.40 L 1042.90 425.10 L 1043.00 397.30 L 1042.60 370.30 L 1041.90 346.40 L 1040.00 304.90 L 1040.20 337.30 L 1039.70 353.90 L 1038.80 370.80 L 1037.10 393.30 L 1034.80 416.00 L 1032.00 439.00 L 1028.70 461.80 L 1025.00 484.70 L 1020.80 507.50 L 1011.50 552.70 L 1006.50 574.70 L 995.70 618.10 L 981.50 669.40 L 973.00 697.90 L 964.40 725.50 L 948.40 773.90 L 929.10 827.70 L 917.80 856.70 L 901.60 859.10 L 885.10 861.00 L 868.30 862.50 L 851.20 863.50 L 834.20 864.00 L 817.00 864.10 L 799.70 863.80 L 782.20 863.10 L 747.30 860.40 L 712.50 856.10 L 678.00 850.30 L 661.00 846.90 L 627.30 839.00 L 594.60 829.80 L 563.00 819.40 L 532.70 807.80 L 518.30 801.70 L 504.00 795.20 L 490.20 788.40 L 477.10 781.50 L 464.60 774.50 L 474.30 765.90 L 482.00 758.40 L 490.30 749.80 L 507.60 730.30 L 523.30 710.40 L 531.10 699.60 L 539.30 687.60 L 547.90 674.40 L 556.00 661.00 L 564.20 646.30 L 572.50 630.50 L 578.30 618.50 L 589.60 592.60 L 595.10 578.60 L 600.20 564.70 L 604.90 550.10 L 609.50 534.80 L 613.70 518.80 L 617.50 502.90 L 620.80 486.40 L 623.80 469.10 L 626.40 451.10 L 628.30 433.30 L 629.80 414.80 L 630.60 395.60 L 631.00 375.60 L 630.80 359.80 L 630.20 343.60 L 629.10 327.00 L 627.60 309.80 L 625.60 292.10 L 623.80 307.50 L 619.80 333.90 L 616.70 351.50 L 612.90 370.20 L 604.30 406.40 L 595.30 438.60 L 590.10 455.00 L 584.40 472.10 L 578.00 489.70 L 571.10 507.20 L 563.60 524.90 L 555.30 542.90 L 548.80 556.20 L 534.50 582.70 L 526.70 595.90 L 518.60 608.90 L 510.00 621.70 L 501.00 634.20 L 491.50 646.60 L 481.60 658.60 L 471.20 670.30 L 460.30 681.70 L 448.90 692.70 L 439.50 701.10 L 429.80 709.30 L 419.70 717.10 L 409.20 724.70 L 398.40 732.00 L 387.60 722.30 L 379.60 713.40 L 373.60 704.80 L 369.00 696.10 L 364.70 684.90 L 352.90 645.20 L 347.60 629.00 L 341.90 612.90 L 335.80 597.10 L 329.50 581.70 L 322.80 566.90 L 315.70 552.30 L 308.30 538.50 L 300.60 525.40 L 294.40 515.80 L 288.10 506.70 L 281.60 498.20 L 274.90 490.20 L 267.90 482.40 L 260.70 475.30 L 253.30 468.80 L 245.80 462.90 L 239.40 458.50 L 233.00 454.50 L 226.40 451.00 L 219.70 447.90 L 212.80 445.20 L 205.80 443.00 L 198.70 441.30 L 191.30 440.00 L 183.80 439.30 L 176.00 439.00 L 165.20 441.80 L 155.20 444.00 L 145.90 445.60 L 137.30 446.70 L 128.30 447.40 L 120.00 447.60 L 112.30 447.40 L 97.90 445.90 L 91.10 444.70 L 79.20 441.40 L 71.60 438.60 L 64.70 435.40 L 58.70 432.00 L 52.80 428.20 L 47.70 424.30 L 43.20 420.40 L 35.20 412.20 L 27.80 402.50 L 22.30 393.00 L 19.70 386.90 L 2.50 390.20 L 1.50 396.90 L 0.80 404.10 L 0.50 412.00 L 0.60 420.50 L 1.90 437.70 L 5.10 458.00 L 6.40 463.10 L 8.20 467.90 L 10.40 472.70 L 13.20 477.50 L 17.40 483.50 L 22.30 489.50 L 28.10 495.60 L 37.30 504.40 L 82.30 543.50 L 94.30 555.00 L 102.10 563.00 L 109.70 571.50 L 117.20 580.70 L 127.60 595.30 L 132.50 603.20 L 137.20 611.60 L 141.50 620.00 L 145.50 629.10 L 149.10 638.60 L 152.50 648.80 L 155.30 659.00 L 157.60 669.80 L 159.60 681.40 L 162.50 706.70 L 164.60 719.60 L 167.30 732.50 L 170.60 745.40 L 174.60 758.40 L 179.00 771.00 L 184.00 783.60 L 189.60 796.10 L 195.70 808.60 L 202.50 821.00 L 209.70 833.10 L 217.40 845.00 L 225.60 856.80 L 234.50 868.40 L 243.90 880.00 L 253.60 891.10 L 263.90 902.00 L 274.70 912.70 L 286.00 923.20 L 297.90 933.50 L 310.00 943.30 L 322.60 952.80 L 335.70 962.10 L 349.30 971.10 L 363.50 979.80 L 377.80 987.90 L 392.60 995.70 L 407.90 1003.20 L 423.60 1010.20 L 439.90 1017.00 L 456.20 1023.10 L 473.00 1028.80 L 490.20 1034.10 L 507.90 1039.00 L 526.20 1043.40 L 544.30 1047.20 L 562.80 1050.40 L 581.90 1053.20 L 601.30 1055.40 L 621.30 1057.10 L 641.10 1058.20 L 661.20 1058.70 L 681.80 1058.60 L 702.90 1057.90 L 724.50 1056.50 L 742.10 1054.90 L 760.00 1052.90 L 778.20 1050.30 L 796.70 1047.30 L 815.60 1043.80 L 834.80 1039.70 L 853.40 1035.30 L 872.40 1030.40 L 891.60 1024.90 L 911.20 1018.80 L 931.00 1012.20 L 951.20 1004.90 L 966.60 997.10 L 984.10 988.80 L 1006.50 979.10 L 1032.70 968.80 L 1046.70 963.90 L 1061.40 959.10 L 1067.80 955.40 L 1074.10 952.20 L 1080.30 949.40 L 1086.40 947.20 L 1094.90 944.70 L 1103.20 942.90 L 1111.40 941.60 L 1127.90 940.50 L 1136.00 940.60 L 1148.10 941.20 L 1182.70 944.70 L 1193.70 945.70 L 1204.10 946.10 L 1210.90 946.10 L 1217.40 945.60 L 1223.60 944.70 L 1232.50 942.30 L 1240.90 938.40 L 1244.70 936.00 L 1248.50 933.10 L 1252.10 929.70 L 1255.60 925.60 L 1263.50 915.80 L 1270.40 906.50 L 1276.40 897.70 L 1282.00 888.60 L 1286.90 880.10 L 1291.00 871.90 L 1288.20 866.10 Z M 398.40 732.00 L 464.60 774.50 L 437.70 758.40 L 422.70 748.90 L 408.90 739.80 L 398.40 732.00 Z M 917.80 856.70 L 962.60 847.10 L 948.00 850.70 L 933.10 853.90 L 917.80 856.70 Z M 871.20 222.70 L 870.80 234.40 L 869.90 247.50 L 868.20 261.90 L 866.10 276.30 L 863.30 291.70 L 860.00 308.10 L 852.10 341.70 L 847.50 359.60 L 839.90 386.50 L 831.60 414.50 L 822.70 442.60 L 813.30 471.10 L 793.60 527.60 L 783.50 555.50 L 763.40 608.70 L 735.50 679.30 L 719.60 718.00 L 695.90 773.70 L 741.00 789.60 L 749.60 775.20 L 757.70 760.30 L 765.60 745.00 L 773.10 729.30 L 780.10 713.30 L 786.90 697.10 L 793.30 680.70 L 799.40 663.90 L 807.00 641.30 L 814.00 618.60 L 820.50 595.60 L 826.50 572.60 L 832.00 549.70 L 837.00 526.90 L 841.60 504.00 L 845.80 481.70 L 852.90 438.00 L 858.50 396.90 L 861.90 367.20 L 864.50 340.30 L 866.70 314.50 L 869.50 271.50 L 870.30 255.20 L 871.20 222.70 Z M 1040.00 304.90 L 1039.30 288.50 L 1038.00 272.60 L 1036.40 257.10 L 1037.80 273.70 L 1040.00 304.90 Z M 1036.40 257.10 L 1036.20 255.00 Z" fill="#6e6e96" fill-opacity="0.15" fill-rule="nonzero" group-id="1,2" id="Shape" node-id="20" stroke="none" target-height="835.99994" target-width="1290.5" target-x="0.5" target-y="222.7"></path></g><path d="M 835.60 981.70 L 829.60 988.20 L 823.50 994.10 L 817.00 999.60 L 810.30 1004.60 L 803.30 1009.10 L 796.00 1013.20 L 788.50 1016.70 L 780.80 1019.70 L 772.80 1022.30 L 764.60 1024.30 L 756.40 1025.80 L 748.00 1026.70 L 739.40 1027.10 L 730.70 1026.90 L 721.70 1026.20 L 712.90 1024.90 L 704.00 1023.00 L 695.00 1020.50 L 685.80 1017.40 L 676.40 1013.60 L 667.50 1009.40 L 658.60 1004.50 L 649.50 998.90 L 640.30 992.50 L 631.00 985.30 L 625.00 980.00 L 619.40 974.40 L 614.30 968.40 L 609.60 962.10 L 605.30 955.50 L 601.40 948.70 L 597.80 941.60 L 594.60 934.30 L 590.80 924.30 L 587.60 914.20 L 584.90 903.80 L 582.60 893.30 L 580.80 882.90 L 579.50 872.60 L 578.50 862.30 L 577.40 842.70 L 577.20 828.60 L 578.20 804.10 L 578.90 794.50 L 581.30 775.00 L 586.30 769.60 L 591.30 764.90 L 596.50 760.90 L 601.70 757.40 L 607.00 754.60 L 612.60 752.10 L 618.40 750.10 L 624.30 748.70 L 630.30 747.70 L 636.50 747.20 L 642.60 747.20 L 648.90 747.50 L 655.40 748.30 L 662.10 749.60 L 669.00 751.20 L 677.30 753.80 L 685.80 756.90 L 694.60 760.60 L 712.50 769.60 L 730.70 780.40 L 740.00 786.60 L 752.20 795.10 L 764.60 804.40 L 777.20 814.40 L 788.50 823.80 L 808.10 841.50 L 816.60 849.90 L 824.90 858.80 L 832.10 867.40 L 838.40 875.70 L 843.70 883.70 L 847.70 890.60 L 850.90 897.30 L 853.60 903.80 L 855.60 910.20 L 857.00 916.50 L 857.80 921.90 L 858.10 927.30 L 858.00 932.70 L 857.40 938.10 L 856.40 943.50 L 854.90 949.00 L 852.60 955.20 L 849.50 961.50 L 845.80 968.00 L 841.10 974.80 L 835.60 981.70 Z" fill="#ffe95f" fill-rule="nonzero" group-id="1" id="Shape" node-id="21" stroke="none" target-height="279.89996" target-width="280.89996" target-x="577.2" target-y="747.2"></path><path d="M 782.90 807.80 L 767.70 796.40 L 760.70 791.90 L 746.70 783.80 L 729.80 775.80 L 698.60 762.90 L 708.70 767.80 L 727.10 775.00 L 736.60 779.90 L 741.50 783.00 L 756.80 795.00 L 765.60 802.60 L 780.90 817.00 L 788.00 824.50 L 794.20 831.80 L 799.60 838.80 L 804.20 845.50 L 807.60 851.30 L 810.40 856.90 L 812.70 862.40 L 814.40 867.80 L 815.60 873.20 L 816.40 878.60 L 816.60 884.10 L 816.20 889.50 L 815.30 895.00 L 813.80 900.50 L 811.80 905.70 L 809.20 911.10 L 806.00 916.60 L 802.00 922.20 L 797.20 928.10 L 792.10 933.50 L 786.80 938.50 L 781.30 943.10 L 775.50 947.30 L 769.40 951.20 L 763.20 954.60 L 756.70 957.60 L 750.10 960.10 L 743.30 962.30 L 736.20 964.00 L 729.10 965.20 L 721.90 966.00 L 714.50 966.30 L 707.00 966.20 L 699.30 965.60 L 691.70 964.50 L 684.10 962.90 L 676.30 960.80 L 668.50 958.10 L 660.40 954.90 L 652.80 951.40 L 645.00 947.30 L 637.20 942.50 L 629.30 937.20 L 621.40 931.10 L 616.30 926.70 L 611.50 922.10 L 607.20 917.10 L 603.20 911.90 L 598.40 904.60 L 594.10 896.90 L 590.40 888.90 L 587.10 880.60 L 584.30 872.20 L 582.00 863.60 L 578.50 846.30 L 577.30 837.70 L 576.00 824.90 L 575.30 812.80 L 575.10 825.90 L 575.40 840.40 L 576.70 860.50 L 577.80 871.00 L 579.30 881.50 L 581.20 892.10 L 583.60 902.70 L 586.40 913.20 L 589.80 923.50 L 593.70 933.60 L 597.00 941.00 L 600.70 948.20 L 604.80 955.10 L 609.20 961.80 L 614.00 968.20 L 619.20 974.20 L 624.90 980.00 L 631.00 985.30 L 640.70 992.80 L 650.20 999.40 L 659.60 1005.20 L 669.00 1010.30 L 678.20 1014.70 L 687.90 1018.60 L 697.50 1021.90 L 706.90 1024.50 L 716.10 1026.40 L 725.20 1027.80 L 734.50 1028.60 L 743.60 1028.70 L 752.50 1028.30 L 761.30 1027.40 L 769.80 1025.80 L 778.30 1023.70 L 786.60 1021.10 L 794.60 1017.90 L 802.40 1014.20 L 810.00 1010.00 L 817.30 1005.30 L 824.20 1000.20 L 830.90 994.50 L 837.40 988.30 L 843.50 981.60 L 848.40 975.60 L 852.60 969.70 L 856.20 964.00 L 859.20 958.40 L 861.60 952.90 L 863.50 947.60 L 865.10 941.90 L 866.20 936.30 L 866.80 930.70 L 866.90 925.10 L 866.60 919.50 L 865.80 913.90 L 864.30 907.30 L 862.20 900.60 L 859.50 893.80 L 856.10 886.90 L 852.00 879.80 L 842.70 866.30 L 837.10 859.30 L 823.80 844.60 L 815.00 835.90 L 805.30 826.90 L 794.60 817.50 L 782.90 807.80 Z" fill="#f5cf6e" fill-rule="nonzero" group-id="1" id="Shape" node-id="22" stroke="none" target-height="265.79993" target-width="291.80005" target-x="575.1" target-y="762.9"></path><g node-id="29"><path d="M 352.30 656.20 L 365.10 649.50 L 386.40 637.20 L 400.30 628.50 L 414.80 618.80 L 431.10 607.20 L 441.90 599.00 L 465.10 580.00 L 476.60 569.80 L 488.20 558.90 L 499.90 547.10 L 516.80 528.60 L 525.00 518.70 L 533.10 508.40 L 540.80 498.00 L 548.20 487.10 L 555.30 475.80 L 562.10 464.20 L 568.40 452.30 L 574.20 440.10 L 579.60 427.50 L 584.50 414.40 L 588.00 403.90 L 591.00 393.20 L 593.70 382.10 L 596.00 370.80 L 597.90 359.20 L 599.20 347.70 L 600.10 336.00 L 600.50 323.90 L 600.30 311.50 L 599.70 298.70 L 598.50 286.30 L 596.70 273.50 L 594.30 260.40 L 591.20 246.90 L 587.50 233.00 L 591.40 246.50 L 596.80 270.10 L 601.50 297.00 L 604.60 322.80 L 605.70 336.40 L 606.40 351.00 L 606.80 366.70 L 606.60 382.30 L 605.90 398.70 L 604.50 415.80 L 603.10 428.60 L 601.20 441.60 L 598.90 455.00 L 596.10 468.70 L 592.90 482.10 L 589.10 495.70 L 584.70 509.60 L 579.70 523.60 L 574.20 537.30 L 568.00 551.10 L 561.10 565.00 L 553.50 579.00 L 547.00 589.80 L 540.10 600.70 L 532.50 611.50 L 524.40 622.40 L 515.70 633.30 L 506.80 643.70 L 497.30 654.00 L 487.10 664.30 L 476.20 674.60 L 464.60 684.80 L 452.90 694.40 L 440.50 703.90 L 427.30 713.40 L 413.30 722.70 L 398.40 732.00 L 352.30 656.20 Z" fill="#6e6e96" fill-opacity="0.15" fill-rule="nonzero" group-id="1,3" id="Shape" node-id="23" stroke="none" target-height="499" target-width="254.5" target-x="352.3" target-y="233"></path></g></g></svg>